<?xml version="1.0" standalone="no"?>
<!DOCTYPE svg PUBLIC "-//W3C//DTD SVG 20010904//EN"
 "http://www.w3.org/TR/2001/REC-SVG-20010904/DTD/svg10.dtd">
<svg version="1.0" xmlns="http://www.w3.org/2000/svg"
 width="1536.000000pt" height="1536.000000pt" viewBox="0 0 1536.000000 1536.000000"
 preserveAspectRatio="xMidYMid meet">
<metadata>
Created by potrace 1.14, written by Peter Selinger 2001-2017
</metadata>
<g transform="translate(0.000000,1536.000000) scale(0.100000,-0.100000)"
fill="#000000" stroke="none">
<path d="M7349 15055 c-2 -2 -58 -6 -124 -9 -66 -3 -140 -8 -165 -10 -25 -3
-76 -8 -115 -11 -89 -8 -131 -13 -175 -20 -19 -3 -73 -10 -120 -15 -101 -13
-337 -53 -470 -82 -52 -11 -106 -22 -120 -24 -14 -2 -110 -27 -215 -54 -104
-28 -199 -52 -211 -55 -12 -3 -40 -11 -63 -20 -23 -8 -44 -14 -46 -14 -7 1
-225 -70 -250 -81 -11 -5 -31 -12 -45 -16 -69 -18 -386 -145 -580 -231 -71
-32 -458 -224 -530 -264 -93 -52 -272 -156 -285 -166 -5 -4 -39 -26 -75 -47
-62 -38 -242 -158 -360 -241 -142 -99 -383 -288 -524 -410 -28 -24 -60 -52
-72 -62 -171 -145 -490 -464 -664 -664 -36 -40 -67 -76 -70 -79 -29 -26 -282
-347 -382 -483 -93 -128 -307 -451 -335 -507 -7 -14 -22 -38 -33 -55 -11 -16
-23 -37 -27 -45 -6 -13 -41 -75 -118 -210 -8 -14 -48 -90 -89 -170 -167 -327
-316 -688 -440 -1062 -34 -104 -120 -403 -131 -458 -2 -8 -11 -44 -20 -80 -9
-36 -19 -76 -22 -90 -2 -13 -11 -56 -19 -95 -9 -38 -17 -79 -20 -90 -4 -22
-27 -147 -49 -270 -7 -44 -17 -104 -20 -134 -4 -30 -8 -61 -10 -70 -1 -9 -6
-45 -10 -81 -4 -36 -9 -73 -11 -83 -1 -9 -6 -52 -9 -95 -3 -42 -8 -93 -10
-112 -26 -195 -26 -1017 0 -1230 2 -19 6 -66 10 -105 3 -38 10 -104 15 -145 5
-41 12 -97 16 -125 3 -27 8 -59 10 -70 2 -10 6 -37 9 -60 16 -108 53 -325 61
-344 2 -8 7 -30 10 -50 3 -20 23 -108 45 -196 22 -88 41 -168 44 -178 47 -201
220 -712 316 -937 31 -72 39 -89 59 -135 84 -191 257 -538 293 -590 12 -16 21
-31 19 -33 -6 -5 145 -256 281 -467 54 -84 245 -356 257 -365 3 -3 17 -21 30
-40 14 -19 32 -44 41 -55 10 -11 46 -56 80 -100 35 -44 66 -82 69 -85 3 -3 24
-27 45 -55 22 -27 49 -59 60 -71 11 -11 47 -52 80 -90 107 -122 356 -376 491
-500 71 -65 181 -164 214 -190 19 -16 42 -36 51 -44 68 -62 307 -249 424 -333
192 -137 574 -387 591 -387 2 0 21 -11 42 -23 86 -54 331 -185 463 -247 41
-19 76 -38 79 -41 3 -3 23 -13 45 -21 22 -9 69 -30 105 -46 147 -68 527 -219
567 -226 7 -1 16 -5 19 -9 4 -4 13 -7 20 -7 7 0 25 -5 41 -12 15 -6 33 -12 38
-14 6 -1 30 -9 55 -17 42 -15 236 -74 270 -82 234 -60 346 -88 404 -101 126
-27 319 -64 386 -74 36 -5 76 -12 90 -14 43 -8 143 -21 235 -32 33 -3 72 -8
86 -9 14 -2 59 -7 100 -10 41 -4 88 -9 104 -10 224 -25 941 -25 1180 -1 84 9
175 18 212 21 23 1 59 6 80 9 21 3 61 8 88 11 28 3 62 8 77 11 15 2 56 9 90
14 35 5 76 12 91 14 15 3 47 8 70 11 23 4 71 13 107 21 36 8 76 16 90 18 104
18 432 98 550 136 19 6 45 13 58 16 115 24 676 230 877 324 22 10 63 28 90 40
74 33 362 176 425 211 160 89 343 195 400 231 124 79 333 219 400 269 112 82
236 175 246 184 6 5 26 21 44 35 18 14 40 32 50 40 10 8 32 26 50 40 18 14 38
30 45 37 6 6 47 41 91 78 96 81 287 259 403 376 117 117 310 325 371 399 18
21 42 50 55 64 24 26 164 198 200 247 11 15 45 60 76 100 104 139 235 330 342
501 74 117 108 175 161 273 6 11 14 22 17 25 3 3 12 19 20 35 9 17 34 64 56
105 50 93 87 163 88 170 1 3 31 66 66 140 36 74 71 151 79 170 7 19 17 40 21
45 12 16 119 286 119 300 0 8 3 15 8 17 4 2 15 28 25 58 10 30 32 90 48 132
16 43 31 85 33 95 1 10 6 25 9 33 13 29 88 281 103 340 2 8 10 40 19 70 9 30
18 64 20 75 8 33 35 148 42 175 4 14 8 32 9 40 1 8 11 56 22 105 19 83 25 119
38 200 3 17 7 41 10 55 9 49 36 216 39 250 3 19 7 53 9 75 58 435 74 1017 41
1420 -2 22 -6 78 -9 125 -3 47 -8 101 -10 120 -3 19 -10 78 -16 130 -14 125
-18 158 -36 265 -8 50 -17 104 -20 120 -7 46 -23 137 -29 165 -3 14 -10 48
-15 75 -6 28 -12 59 -14 70 -2 11 -21 88 -41 170 -20 83 -38 158 -40 168 -2
10 -9 32 -14 50 -6 18 -25 79 -42 137 -51 172 -111 354 -121 368 -6 6 -8 12
-5 12 3 0 -7 32 -23 70 -16 39 -26 70 -23 70 3 0 1 6 -4 13 -5 6 -18 35 -28
62 -18 50 -30 81 -58 145 -8 19 -26 62 -40 95 -80 191 -254 537 -364 723 -24
41 -43 76 -43 78 0 11 -295 472 -310 484 -4 3 -25 32 -47 65 -74 109 -264 352
-403 514 -163 192 -431 471 -610 636 -67 62 -284 251 -322 280 -40 31 -114 90
-118 95 -31 35 -532 390 -551 390 -5 0 -9 5 -9 10 0 6 -5 10 -11 10 -7 0 -34
16 -60 35 -27 19 -52 35 -55 35 -3 0 -36 20 -74 45 -38 25 -71 45 -74 45 -4 0
-111 61 -186 105 -39 24 -469 237 -530 264 -30 13 -74 32 -98 43 -77 34 -337
136 -428 168 -197 69 -401 134 -411 131 -2 0 -21 6 -44 14 -23 9 -51 17 -63
20 -12 2 -46 11 -76 20 -30 9 -66 18 -79 21 -14 3 -79 18 -145 34 -67 16 -139
32 -161 36 -22 5 -42 9 -45 9 -7 2 -71 14 -105 20 -16 3 -55 10 -85 16 -30 6
-68 12 -85 14 -16 2 -43 6 -60 9 -98 15 -164 24 -230 32 -27 3 -61 7 -75 9
-14 2 -54 7 -90 10 -36 3 -92 8 -125 11 -33 3 -89 8 -125 11 -79 6 -806 14
-811 8z"/>
</g>
</svg>
